<?xml version="1.0" encoding="utf-8"?>
<!-- Generator: Adobe Illustrator 13.0.0, SVG Export Plug-In . SVG Version: 6.00 Build 14948)  -->
<!DOCTYPE svg PUBLIC "-//W3C//DTD SVG 1.1//EN" "http://www.w3.org/Graphics/SVG/1.1/DTD/svg11.dtd">
<svg version="1.1" xmlns="http://www.w3.org/2000/svg" xmlns:xlink="http://www.w3.org/1999/xlink" x="0px" y="0px"
	 width="595.669px" height="595.67px" viewBox="0 0 595.669 595.67" enable-background="new 0 0 595.669 595.67"
	 xml:space="preserve">
<g id="Layer_4">
	<g>
		<g>
			<path d="M284.911,380.54l-1.337-1.34l1.142-74.663l-5.832,1.648l-1.285,76.559l-30.646,8.71l-3.125-1.313l-0.226-28.806
				l-4.687,0.893v1.761l-36.173,9.211c0,0-2.095,0.501-2.902,1.31c-1.011,1.013-1.338,2.904-1.338,2.904v26.795l-59.621,16.745
				l-2.01,0.226l-1.34-0.895l-0.222-9.826l31.343-8.121c0,0,2.344-0.837,3.013-1.506c0.671-0.671,1.146-1.76,1.146-1.76v-13.173
				c0,0-0.307-1.982-1.311-2.569c-0.866-0.503-2.849-0.503-2.849-0.503l-32.99,8.876c0,0-2.011,0.923-2.513,1.508
				c-0.727,0.847-1.2,1.844-1.2,1.844l0.028,28.05l-25.037,7.007l-3.349-2.903l-0.67-76.812l-5.136,1.115v50.466l-35.95,10.271
				c0,0-2.008,0.67-2.902,1.562c-0.893,0.893-1.117,2.456-1.117,2.456l0.559,27.437l-28.553,7.869L26.65,350.089l-8.346,2.763
				l0.893,108.014l282.854-77.619v-7.451L284.911,380.54z M64.329,441.859c0,0-1.227,0.55-1.758,0.169
				c-0.587-0.422-0.587-1.256-0.587-1.256l-0.586-21.158c0,0-0.136-0.843,0.224-1.561c0.362-0.726,1.366-0.979,1.366-0.979
				l29.894-8.403c0,0,1.167-0.618,2.261-0.305c0.586,0.167,1.423,1.005,1.423,1.005l0.336,22.971L64.329,441.859z M134.75,398.401
				c0,0-0.085-1.256,0.584-1.842c0.405-0.353,1.425-0.837,1.425-0.837l28.551-7.619l0.921,0.167l0.334,7.367
				c0,0-0.589,1.091-0.921,1.425c-0.334,0.335-1.171,0.67-1.171,0.67l-27.046,7.704c0,0-1.086,0.082-1.675-0.251
				c-0.465-0.266-0.669-1.256-0.669-1.256L134.75,398.401z M238.664,393.211c-0.362,0.432-2.011,1.005-2.011,1.005l-30.396,8.122
				c0,0-1.032,0.489-1.843,0.084c-0.333-0.168-1.086-0.921-1.086-0.921l-0.084-21.354c0,0,0.334-1.171,0.67-1.757
				c0.334-0.586,2.343-0.922,2.343-0.922l28.889-7.369c0,0,2.008-0.168,2.679,0.083c0.669,0.253,1.172,1.425,1.172,1.425
				l0.502,19.847C239.5,391.454,239.082,392.709,238.664,393.211z"/>
		</g>
	</g>
</g>
<g id="Layer_5">
	<g>
		<path fill="none" d="M310.061,583.667c10,1.334,53.334-4,72-4s58,14,75.333,4c6-2.667,27.333-73.332,35.333-86.666
			s30-72,44.667-78c-5.709,0.251-40.405-9.563-46.667-10C482.37,408.417,442.394,435,421.394,459c-15,14-33.248,45.744-37,57
			c2-25,26-62,47-79c14.332-11.602,31.287-26.014,23-23s-56,36-78.858,33.291c-3.477-0.412-11.709-16.825-19.475-28.874
			c-4.822-7.481-10.669-12.289-11.432-13.545c-2.51,2.169-8.838,8.431-10.152,9.295s-18.346,10.482-24.993,17.974
			c-4.081,4.6-8.788,9.032-11.516,12.725c-1.937,2.631-2.474,6.061-4.241,8.485c-6.004,8.243-36.162,39.496-43.022,47.266
			c-7.289,8.255-9.852,12.454-7.877,26.058c2.173,14.985,7.843,33.795,15.149,44.842c0.772-2.486-2.281-8.625-0.606-12.12
			c7.158,7.383,7.295,15.04,9.089,27.874c0.375,2.682,0.797,5.496,1.261,8.4h23.541c-10.181-12.11-17.295-21.17-17.201-22.669
			C274.244,570.06,300.061,582.333,310.061,583.667z M319.394,432c-11,20-31,62-45,97C277.394,491,310.798,441.054,319.394,432z
			 M247.675,526.674c2.887,6.604,3.639,15.348,5.453,23.026C249.496,543.717,247.299,535.48,247.675,526.674z M267.065,568.486
			c-3.415-8.225-6.048-21.89-3.636-32.118C267.756,543.577,268.4,557.631,267.065,568.486z"/>
		<path fill="none" d="M559.144,466.683c3.948,5.811,14.25,15.317,6.06,47.87c10.19-13.553,21.19-42.553,23.028-50.901
			c2.108-9.579-0.837-21.318-3.504-26.318S560.394,425,560.394,425s-16.666-6-34.577,21.686c-5.423,11.314-5.06,22.764-4.241,34.539
			s2.724,23.732,0.604,35.754s-8.293,38.825-10.908,45.447c-4.076,10.322-7.627,21.56-6.925,33.244h7.547
			c1.932-10.493,21.808-63.752,26.647-78.691C543.394,502,546.993,478.109,559.144,466.683z"/>
		<path fill="none" d="M365.394,312c-5.792,12.393-1,23.833,3.667,27.167c2.974,2.125,4.166,17.333-10.494,17.228
			c-0.97,1.313-1.604,2.894-2.34,4.438c1.698-0.727,4.705-1.468,7.188-1.409c4.854,2.801,6.762,4.886,10.304,9.091
			c1.01-4.315,16.632-15.687,20.603-18.785c-1.286-16.417,13.773-25.847,14.073-36.396C400.394,311.333,384.394,322,365.394,312z"/>
		<path fill="none" d="M585.061,576c0.161-20.674,5.727-37.769,7.414-60.841c-4.295,11.128-7.244,23.097-10.303,35.146
			c-3.067,12.065-0.267,26.778-1.817,42.42c-0.094,0.942-0.463,1.925-0.845,2.944h4.649
			C584.553,588.688,585.282,581.074,585.061,576z"/>
		<path fill="none" d="M258.582,304.281c3.135,1.116,6.555,5.148,10.907,3.03C267.063,305.486,263.034,302.064,258.582,304.281z"/>
		<path fill="none" d="M195.561,461.228c0.757-3.078,1.681-5.993,5.454-6.059c0.303-1.907-1.321-2.369,0-3.636
			c4.361-2.926,10.703-5.66,18.179-9.697c7.297-3.938,20.17-16.771,22.422-3.029c0.438,0.576,4.615-0.596,6.06,0.605
			c0.495,1.93,0.384,4.462,1.212,6.061c1.643,0.983,4.472,0.78,6.665,1.213c5.949-8.393,11.476-17.207,22.42-20.604
			c7.734-11.251,16.184-21.793,21.815-35.146c8.229-1.978,17.507,4.832,23.028,3.636c1.033-1.951-2.41-3.83-4.243-4.848
			c1.854-3.22-2.848-9.638,1.819-10.907c-0.673,4.038-0.318,8.066,1.817,11.514c-0.25-4.885-1.952-12.387,0.606-15.758
			c1.28,3.432-1.355,12.321,3.029,16.363c0.075-5.366-3.455-9.627-0.605-15.755c3.429-0.399,3.262,2.796,3.029,6.06
			c2.509,0.086,0.629-4.217,1.212-6.06c1.913,0.599,0.242,3.972,1.817,6.06c4.921-6.895-6.734-7.781-6.059-12.121
			c2.834-0.158-0.788,2.354,1.817,2.425c0.68-2.086-1.454-4.541,1.212-6.665c3.312,1.566-1.859,2.124,0,4.24
			c2.021-0.4,1.753-3.094,3.636-3.635c2.208,1.834,1.255-0.453,4.848,0c0.556-2.377-3.198-0.439-3.636-1.818
			c8.407-1.422,14.089,1.521,21.444-2.666c-1.507-8.393-9.291-8.682-15.385-12.482c0.73-4.581,3.952-7.943,4.241-12.727
			c0.175-2.892-1.424-4.973-1.818-7.877c-0.766-5.66,2.407-10.314,1.212-15.755c-4.308-3.175-7.946,3.432-13.33,4.241
			c-7.303,1.1-15.601-0.649-19.997-4.848c-6.498,0.238-8.162-4.362-9.696-9.09c-0.609-1.822,0.275-1.488-0.607-1.818
			c-2.901,3.733,0.793,19.205,0.607,20.604c0.462,7.226,1.975,12.795,4.243,18.179c2.146,5.099,6.802,9.253,4.848,14.544
			c-1.896-2.613-7.166,2.486-10.91,0c-1.04-0.98-1.503-2.534-1.212-4.848c-3.539,0.131-16.862-2.123-16.862-2.123
			s14.791,0.051,14.438-6.359c-1.942-2.701-4.999-4.293-7.271-6.667c-2.541,2.103-5.533,3.759-10.302,3.636
			c1.582-1.649,4.422-2.041,5.454-4.242c-0.044-4.006-6.684-7.189-8.945-3.492c-3.671,4.814-15.704,8.938-24.382,10.766
			c2.336-1.703,5.145-2.936,7.877-4.243c-4.848-2.411-7.609,2.481-12.119,2.423c2.748-3.227,3.97-6.919,7.31-8.895
			c-1.029,0.131-2.063,0.258-3.068,0.412c3.481-3.184,9.948-3.38,13.937-6.06c-0.879-0.938-2.362-1.272-4.242-1.212
			c0.399-0.813,1.296-1.127,2.423-1.212c-1.173-1.251-3.69-1.157-5.453-1.817c-0.282-1.294,0.865-1.154,1.818-1.213
			c-2.031-1.806-4.501-3.177-6.06-5.453c2.85,1.309,14.869,4.798,18.785,0c-0.192-3.041-4.97-1.494-7.271-2.424
			c0.076-1.339,2.569-0.258,3.636-0.605c-6.197-0.273-10.284-5.871-16.361-4.242c-1.614-1.85,1.585-4.043,0.606-7.272
			c-1.022-1.806-4.119-1.536-6.665-1.817c0.079-1.494,0.09-2.921-0.606-3.637c-8.066-0.994-9.509,4.632-10.301,10.908
			c-3.985-9.143,4.035-15.938,11.513-17.573c-2.389-1.853-5.232-3.253-4.242-8.483c1.375,2.461,2.986,4.689,5.454,6.06
			c1.352-0.757,3.787-4.505,1.212-5.454c3.274,0.331,5.713-3.477,10.301-3.635c-1.658-2.227-1.952-8.278,0.606-9.697
			c1.439,0.379-0.093,3.73,1.212,4.243c2.319-3.136,3.563-7.345,5.454-10.908c-12.055-11.175-26.854-19.603-30.903-38.782
			c3.105,9.411,13.555,10.786,25.45,15.15c16.798,6.161,40.872,8.879,54.539,9.089s36.667-3.29,57.667-7.29s65-14.5,65-14.5
			s41-10,57.5-19.5c5.833-3.333,17.38-13.968,14.347-21.125c6.949,13.377-1.09,25.086-7.847,34.625c-8.5,12-13,16-17.5,25
			c0.89,1.87,5.753,1.17,7.5,0.5c0.096,2.316-12.499,4.866-13.661,5.926c3.545,5.139,6.94,10.428,14.542,11.514
			c5.526-1.341,5.071-8.664,4.848-15.755c4.495,2.171,3.697,9.634,3.636,16.361c3.662-0.984,3.787-5.504,5.453-8.484
			c1.577,5.42,0.135,13.055-3.029,15.756c9.978,3.904,18.765-2.75,23.635-7.877c0.882,1.518-2.305,4.142-2.424,6.664
			c3.336-0.197,6.024-1.101,9.089,0c-0.156,1.862-1.313,2.727-1.817,4.244c0.056,2.365,2.447,2.398,3.636,3.636
			c-4.053,3.22-8.096,6.448-13.332,8.483c1.789,4.977,6.984,7.548,9.091,13.33c3.256,8.951-0.336,20.828,0,32.117
			c-3.146-2.311-3.12-7.791-7.271-9.09c0.696,12.199-2.25,24.398-8.486,31.512c-1.257-2.381-3.359-3.912-7.272-3.637
			c0.571,3.875,3.636,9.695,3.636,9.695S490.894,357,481.394,348c7.5,11,5.033,32.028,5.033,32.028s-16.341-22.345-14.533-2.028
			c1,5,7.373,8.98,7.868,14.754c20.722,7.143,41.674,16.142,62.415,24.239c18.53,7.232,37.806,12.58,53.492,22.981V0H0v584.4
			C64.918,543.076,130.791,502.707,195.561,461.228z M315.543,382.453c0.607,0,1.213,0,1.819,0
			c-0.359,2.577,0.434,4.007,0.605,6.059C314.35,389.302,315.85,384.975,315.543,382.453z M324.633,364.879
			c1.532,1.77-0.42,5.212-2.424,5.453C323.576,368.125,323.113,367.339,324.633,364.879z M320.392,364.879
			c2.811,0.359-0.163,2.991,1.212,4.24C319.299,369.606,320.832,366.254,320.392,364.879z M320.392,375.181
			c1.763,1.031-0.539,3.038-1.212,3.636C317.187,377.555,320.202,376.26,320.392,375.181z M314.332,372.756
			c1.938,0.91,1.728,2.823,3.031,0c1.627-0.418,1.17,1.254,1.817,1.816c-0.045,1.777-1.387,2.252-2.424,3.033
			c1.718,0.409,0.763,4.017-1.213,4.24c0.222-3.008,1.227-5.238,2.425-7.273c-0.182-1.439-1.641,0.675-1.817,1.214
			c-0.619-0.395-0.631-1.396-1.819-1.214C314.332,373.968,314.332,373.361,314.332,372.756z M313.727,386.694
			c-2.471-1.031-0.249-7.308,0.604-10.302C315.864,378.34,313.176,383.502,313.727,386.694z M312.515,372.148
			c-0.539,1.049-0.776,3.59,0.604,1.819c1.532,2.067-3.37,7.519-1.817,11.515c-2.788-1.603-0.385-7.893,1.213-9.09
			C311.343,376.04,309.074,373.054,312.515,372.148z M309.484,372.756c-1.4,1.615-1.589,4.051,0.606,4.85
			c-0.568,2.606-2.124,5.579-1.212,7.877c-3.449-3.09,2.521-9.259-2.424-11.515C306.967,373.068,307.978,372.664,309.484,372.756z
			 M306.455,381.846c-1.412-2.03-1.499-2.631-1.817-4.848C307.13,377.953,307.276,379.885,306.455,381.846z"/>
		<path fill="none" d="M272.519,321.248c-1.293-2.397-3.635-1.428-7.877-2.424c-0.964,1.863,2.662,5.257,1.752,7.176
			c-0.944,0.985-12.423,1.745-7.812,2.52c-0.207,0.084-0.428,0.153-0.645,0.228c-0.966,1.262-0.417,2.305-2.385,2.802
			c2.893,1.862,6.363-0.894,9.695-0.605c0.169,0.979-0.574,1.043-0.606,1.818c2.416-0.615,6.55-1.934,8.627-2.887
			C274.429,326.785,280.545,318.065,272.519,321.248z"/>
		<path fill="none" d="M314.939,306.1c-1.094,0.788,0.757,3.274-0.607,4.848c2.625-0.254,8.394,2.488,10.302-0.605
			C319.966,310.656,319.043,304.365,314.939,306.1z"/>
		<path fill="none" d="M200.408,547.881c-7.41,2.621-12.824,9.964-19.39,15.15c-6.689,5.279-13.216,10.504-19.392,15.756
			c9.343-11.059,25.148-20.905,36.359-32.118c0.565-11.149,12.689-10.738,12.118-23.025c10.587-15.874,22.015-30.907,34.542-44.843
			c-1.687-3.956,4.207-7.734,2.424-12.118c0.309-3.326,3.125-4.146,4.241-6.667c-18.592-8.561-25.589,17.189-41.813,10.908
			c-15.425,7.591-29.692,17.04-44.236,26.057c-43.044,26.684-86.117,53.889-130.891,79.383c-0.013,1.427,1.045,1.783,0.606,3.636
			c-7.514,5.225-15.028,10.449-22.544,15.671H142.93c7.35-5.527,14.644-11.146,21.726-16.883
			C176.896,568.871,190.467,560.098,200.408,547.881z M145.87,589.694c0.774-3.676,8.32-5.816,11.513-9.09
			C156.05,583.722,148.856,586.211,145.87,589.694z"/>
		<path fill="none" d="M204.044,551.518c-1.717,0.632-2.525,0.632-4.242,0c-17.588,15.898-36.878,29.293-55.278,44.152h91.728
			c0.155-18.567,0.548-37.72-0.09-56.271c5.737,18.314,9.683,38.421,15.884,56.271h4.698c-7.365-22.401-17.014-47.239-18.765-76.268
			C227.874,527.784,214.309,539.645,204.044,551.518z"/>
		<path fill="none" d="M241.615,444.261c1.542-0.074,2.349-0.882,2.424-2.425C242.615,440.196,239.975,442.836,241.615,444.261z"/>
		<path fill="none" d="M328.875,381.846c0.507,2.521,0.069,5.988,3.029,6.061C330.481,386.301,330.825,382.927,328.875,381.846z"/>
		<path fill="none" d="M327.227,246.833c-4.605-0.443-10.833,2.667-11.333,7.5s1.548,10.64,7.527,12.377
			c10.982,1.878,13.306-7.21,13.306-10.043S335.893,247.667,327.227,246.833z"/>
		<path fill="none" d="M328.269,390.33c-0.216-4.585-1.14-9.806-2.424-14.544C324.939,381.388,326.553,385.813,328.269,390.33z"/>
		<path fill="none" d="M331.298,367.303c0.157,2.781,0.645,2.929,0,5.453C333.985,372.787,332.813,368.14,331.298,367.303z"/>
		<path fill="none" d="M336.146,379.422c0.257,1.359,1.299,1.932,1.818,3.031c0.135-0.473,0.507-0.706,1.212-0.607
			C339.062,380.142,338.121,379.264,336.146,379.422z"/>
		<path fill="none" d="M358.894,369.5c-0.166,0.955-0.409,3.815,0.278,4.681c1.556-3.014,7.623,0.266,7.555-2.181
			C366.144,370.77,360.809,369.404,358.894,369.5z"/>
		<path fill="none" d="M331.905,374.572c2.188,3.268,6.931,3.98,9.694,6.668C339.667,377.719,335.254,376.678,331.905,374.572z"/>
		<path fill="none" d="M354.324,376.998c-0.978,1.895-1.918-1.243-3.028-1.212c1.194,2.038,1.529,4.934,3.636,6.06
			C354.561,380.397,355.691,377.449,354.324,376.998z"/>
		<path fill="none" d="M301,393.359c-6.515,11.056-14.786,20.362-19.997,32.723c8.792-1.176,9.847-15.148,18.785-18.181
			c-1.941-6.141,4.188-7.392,4.85-12.725C304.125,393.871,301.977,394.2,301,393.359z"/>
		<path fill="none" d="M248.281,475.771c0.539-1.077,1.689-1.54,1.211-3.636C247.349,471.77,245.985,475.274,248.281,475.771z"/>
		<path fill="none" d="M207.074,456.986c-0.618,2.078,1.716,4.278,3.029,2.424C208.991,458.706,209.684,456.193,207.074,456.986z"/>
		<path fill="none" d="M373.354,421.052c1.886,4.162,8.687,7.846,13.33,5.454C384.642,422.041,376.582,413.517,373.354,421.052z"/>
		<path fill="none" d="M199.802,464.863C146.491,499.729,91.53,533.924,38.008,568.486c-4.109,2.651-9.243,3.997-12.12,8.482
			l166.037-100.592c8.725-1.495,19.554-9.872,10.907-18.179C198.078,457.935,201.288,462.681,199.802,464.863z"/>
		<path d="M321.604,369.119c-1.375-1.249,1.599-3.881-1.212-4.24C320.832,366.254,319.299,369.606,321.604,369.119z"/>
		<path d="M319.18,378.816c0.673-0.598,2.975-2.604,1.212-3.636C320.202,376.26,317.187,377.555,319.18,378.816z"/>
		<path d="M313.727,386.694c-0.551-3.192,2.137-8.354,0.604-10.302C313.478,379.387,311.256,385.663,313.727,386.694z"/>
		<path d="M304.637,376.998c0.318,2.217,0.405,2.817,1.817,4.848C307.276,379.885,307.13,377.953,304.637,376.998z"/>
		<path d="M317.363,382.453c-0.606,0-1.212,0-1.819,0c0.307,2.521-1.193,6.849,2.425,6.059
			C317.796,386.46,317.003,385.03,317.363,382.453z"/>
		<path d="M253.128,549.7c-1.814-7.679-2.566-16.422-5.453-23.026C247.299,535.48,249.496,543.717,253.128,549.7z"/>
		<path d="M267.065,568.486c1.334-10.855,0.69-24.909-3.636-32.118C261.017,546.597,263.651,560.262,267.065,568.486z"/>
		<path d="M479.762,392.754c-0.495-5.773-6.868-9.754-7.868-14.754c-1.808-20.316,14.533,2.028,14.533,2.028
			S488.894,359,481.394,348c9.5,9,29.271,8.395,29.271,8.395s-3.064-5.82-3.636-9.695c3.913-0.275,6.016,1.256,7.272,3.637
			c6.236-7.113,9.183-19.313,8.486-31.512c4.151,1.299,4.125,6.779,7.271,9.09c-0.336-11.289,3.256-23.166,0-32.117
			c-2.106-5.782-7.302-8.354-9.091-13.33c5.236-2.035,9.279-5.264,13.332-8.483c-1.188-1.237-3.58-1.271-3.636-3.636
			c0.504-1.518,1.661-2.382,1.817-4.244c-3.064-1.101-5.753-0.197-9.089,0c0.119-2.522,3.306-5.146,2.424-6.664
			c-4.87,5.127-13.657,11.781-23.635,7.877c3.164-2.701,4.606-10.336,3.029-15.756c-1.666,2.98-1.791,7.5-5.453,8.484
			c0.062-6.727,0.859-14.19-3.636-16.361c0.224,7.091,0.679,14.415-4.848,15.755c-7.602-1.086-10.997-6.375-14.542-11.514
			c1.162-1.06,13.757-3.61,13.661-5.926c-1.747,0.67-6.61,1.37-7.5-0.5c4.5-9,9-13,17.5-25c6.757-9.539,14.796-21.249,7.847-34.625
			c3.033,7.158-8.514,17.792-14.347,21.125c-16.5,9.5-57.5,19.5-57.5,19.5s-44,10.5-65,14.5s-44,7.5-57.667,7.29
			s-37.741-2.928-54.539-9.089c-11.895-4.364-22.344-5.739-25.45-15.15c4.049,19.179,18.849,27.607,30.903,38.782
			c-1.891,3.563-3.135,7.772-5.454,10.908c-1.305-0.513,0.228-3.864-1.212-4.243c-2.558,1.419-2.264,7.471-0.606,9.697
			c-4.588,0.158-7.027,3.966-10.301,3.635c2.575,0.949,0.14,4.697-1.212,5.454c-2.468-1.37-4.079-3.599-5.454-6.06
			c-0.99,5.23,1.853,6.631,4.242,8.483c-7.479,1.636-15.499,8.431-11.513,17.573c0.792-6.276,2.234-11.902,10.301-10.908
			c0.697,0.716,0.685,2.143,0.606,3.637c2.546,0.281,5.643,0.012,6.665,1.817c0.979,3.229-2.22,5.423-0.606,7.272
			c6.077-1.629,10.164,3.969,16.361,4.242c-1.066,0.348-3.56-0.733-3.636,0.605c2.301,0.93,7.079-0.617,7.271,2.424
			c-3.916,4.798-15.935,1.309-18.785,0c1.559,2.276,4.029,3.647,6.06,5.453c-0.953,0.059-2.1-0.081-1.818,1.213
			c1.763,0.66,4.28,0.566,5.453,1.817c-1.127,0.085-2.024,0.399-2.423,1.212c1.879-0.061,3.362,0.273,4.242,1.212
			c-3.988,2.68-10.456,2.876-13.937,6.06c1.005-0.154,2.039-0.281,3.068-0.412c-3.339,1.976-4.562,5.668-7.31,8.895
			c4.509,0.059,7.271-4.834,12.119-2.423c-2.732,1.308-5.541,2.54-7.877,4.243c8.678-1.827,20.711-5.951,24.382-10.766
			c-2.078,0.953-6.212,2.271-8.627,2.887c0.032-0.775,0.775-0.84,0.606-1.818c-3.333-0.288-6.803,2.468-9.695,0.605
			c1.967-0.497,1.419-1.54,2.385-2.802c0.217-0.074,0.438-0.144,0.645-0.228c-4.611-0.774,6.868-1.534,7.812-2.52
			c0.909-1.919-2.717-5.313-1.752-7.176c4.242,0.996,6.583,0.026,7.877,2.424c8.026-3.183,1.911,5.537,0.75,8.627
			c2.261-3.697,8.901-0.514,8.945,3.492c-1.032,2.201-3.872,2.593-5.454,4.242c4.769,0.123,7.761-1.533,10.302-3.636
			c2.271,2.374,5.328,3.966,7.271,6.667c0.353,6.41-14.438,6.359-14.438,6.359s13.323,2.254,16.862,2.123
			c-0.291,2.313,0.172,3.867,1.212,4.848c3.744,2.486,9.014-2.613,10.91,0c1.954-5.291-2.701-9.445-4.848-14.544
			c-2.269-5.384-3.781-10.953-4.243-18.179c0.186-1.398-3.509-16.87-0.607-20.604c0.883,0.33-0.002-0.004,0.607,1.818
			c1.534,4.728,3.198,9.328,9.696,9.09c4.396,4.198,12.694,5.947,19.997,4.848c5.384-0.81,9.022-7.416,13.33-4.241
			c1.195,5.44-1.978,10.095-1.212,15.755c0.395,2.904,1.993,4.985,1.818,7.877c-0.289,4.783-3.511,8.146-4.241,12.727
			c6.094,3.801,13.878,4.09,15.385,12.482c-7.355,4.188-13.037,1.244-21.444,2.666c0.438,1.379,4.191-0.559,3.636,1.818
			c-3.593-0.453-2.64,1.834-4.848,0c-1.883,0.541-1.614,3.234-3.636,3.635c-1.859-2.116,3.312-2.674,0-4.24
			c-2.666,2.124-0.532,4.579-1.212,6.665c-2.605-0.071,1.017-2.583-1.817-2.425c-0.676,4.34,10.979,5.227,6.059,12.121
			c-1.575-2.088,0.096-5.461-1.817-6.06c-0.583,1.843,1.297,6.146-1.212,6.06c0.232-3.264,0.399-6.459-3.029-6.06
			c-2.85,6.128,0.681,10.389,0.605,15.755c-4.385-4.042-1.749-12.932-3.029-16.363c-2.559,3.371-0.856,10.873-0.606,15.758
			c-2.136-3.447-2.49-7.476-1.817-11.514c-4.667,1.27,0.035,7.688-1.819,10.907c1.833,1.018,5.276,2.896,4.243,4.848
			c-5.521,1.196-14.8-5.613-23.028-3.636c-5.632,13.354-14.081,23.896-21.815,35.146c-10.944,3.396-16.471,12.211-22.42,20.604
			c-2.193-0.433-5.022-0.229-6.665-1.213c-0.828-1.599-0.717-4.131-1.212-6.061c-1.445-1.201-5.623-0.029-6.06-0.605
			c-2.252-13.742-15.125-0.909-22.422,3.029c-7.476,4.037-13.818,6.771-18.179,9.697c-1.321,1.267,0.303,1.729,0,3.636
			c-3.773,0.065-4.696,2.98-5.454,6.059C130.791,502.707,64.918,543.076,0,584.4v11.27h12.432
			c7.517-5.222,15.03-10.446,22.544-15.671c0.439-1.853-0.619-2.209-0.606-3.636c44.774-25.494,87.847-52.699,130.891-79.383
			c14.544-9.017,28.811-18.466,44.236-26.057c16.224,6.281,23.221-19.469,41.813-10.908c-1.116,2.521-3.933,3.341-4.241,6.667
			c1.783,4.384-4.11,8.162-2.424,12.118c-12.527,13.936-23.956,28.969-34.542,44.843c0.571,12.287-11.553,11.876-12.118,23.025
			c-11.21,11.213-27.016,21.06-36.359,32.118c6.176-5.252,12.703-10.477,19.392-15.756c6.566-5.187,11.98-12.529,19.39-15.15
			c-9.941,12.217-23.512,20.99-35.752,30.906c-7.082,5.736-14.376,11.355-21.726,16.883h1.594
			c18.4-14.859,37.689-28.254,55.278-44.152c1.717,0.632,2.525,0.632,4.242,0c10.265-11.873,23.83-23.733,33.936-32.115
			c1.751,29.028,11.4,53.866,18.765,76.268h10.977c-0.464-2.904-0.886-5.719-1.261-8.4c-1.794-12.834-1.931-20.491-9.089-27.874
			c-1.675,3.495,1.378,9.634,0.606,12.12c-7.306-11.047-12.976-29.856-15.149-44.842c-1.975-13.604,0.588-17.803,7.877-26.058
			c6.861-7.77,37.019-39.022,43.022-47.266c1.768-2.425,2.305-5.854,4.241-8.485c2.728-3.692,7.435-8.125,11.516-12.725
			c6.647-7.491,23.679-17.109,24.993-17.974s7.643-7.126,10.152-9.295c0.763,1.256,6.609,6.063,11.432,13.545
			c7.766,12.049,15.998,28.462,19.475,28.874C398.394,450,446.107,417.014,454.394,414s-8.668,11.398-23,23c-21,17-45,54-47,79
			c3.752-11.256,22-43,37-57c21-24,60.976-50.583,69.333-49.999c6.262,0.438,40.958,10.251,46.667,10
			c-14.667,6-36.667,64.666-44.667,78S463.394,581,457.394,583.667c-17.333,10-56.667-4-75.333-4s-62,5.334-72,4
			s-35.817-13.607-36-10.666c-0.094,1.499,7.02,10.559,17.201,22.669h213.086c-0.702-11.685,2.849-22.922,6.925-33.244
			c2.615-6.622,8.789-33.426,10.908-45.447s0.214-23.979-0.604-35.754s-1.182-23.225,4.241-34.539
			C543.728,419,560.394,425,560.394,425s21.667,7.333,24.334,12.333s5.612,16.739,3.504,26.318
			C586.394,472,575.394,501,565.204,514.553c8.19-32.553-2.111-42.06-6.06-47.87c-12.151,11.427-15.75,35.317-20.603,50.296
			c-4.84,14.939-24.716,68.198-26.647,78.691h67.616c0.382-1.02,0.751-2.002,0.845-2.944c1.551-15.642-1.25-30.354,1.817-42.42
			c3.059-12.05,6.008-24.019,10.303-35.146c-1.688,23.072-7.253,40.167-7.414,60.841c0.221,5.074-0.508,12.688-0.901,19.67h11.51
			V439.975c-15.687-10.401-34.962-15.749-53.492-22.981C521.436,408.896,500.484,399.896,479.762,392.754z M258.582,304.281
			c4.452-2.217,8.481,1.205,10.907,3.03C265.137,309.43,261.717,305.397,258.582,304.281z M314.332,310.947
			c1.364-1.573-0.486-4.06,0.607-4.848c4.104-1.734,5.027,4.557,9.694,4.242C322.725,313.436,316.957,310.693,314.332,310.947z
			 M323.421,266.71c-5.979-1.737-8.027-7.543-7.527-12.377s6.728-7.943,11.333-7.5c8.666,0.833,9.5,7,9.5,9.833
			S334.404,268.588,323.421,266.71z M191.925,476.377L25.888,576.969c2.877-4.485,8.011-5.831,12.12-8.482
			c53.522-34.563,108.483-68.758,161.794-103.623c1.486-2.183-1.724-6.929,3.03-6.665
			C211.479,466.505,200.65,474.882,191.925,476.377z M207.074,456.986c2.61-0.793,1.917,1.72,3.029,2.424
			C208.79,461.265,206.456,459.064,207.074,456.986z M241.615,444.261c-1.64-1.425,1-4.064,2.424-2.425
			C243.964,443.379,243.157,444.187,241.615,444.261z M248.281,475.771c-2.296-0.497-0.933-4.002,1.211-3.636
			C249.97,474.231,248.82,474.694,248.281,475.771z M299.788,407.901c-8.938,3.032-9.993,17.005-18.785,18.181
			c5.211-12.36,13.482-21.667,19.997-32.723c0.978,0.841,3.125,0.512,3.638,1.817C303.976,400.51,297.846,401.761,299.788,407.901z
			 M325.845,375.786c1.284,4.738,2.208,9.959,2.424,14.544C326.553,385.813,324.939,381.388,325.845,375.786z M328.875,381.846
			c1.949,1.081,1.605,4.455,3.029,6.061C328.945,387.834,329.382,384.366,328.875,381.846z M331.298,367.303
			c1.515,0.837,2.687,5.484,0,5.453C331.943,370.231,331.456,370.084,331.298,367.303z M337.964,382.453
			c-0.52-1.1-1.562-1.672-1.818-3.031c1.975-0.158,2.916,0.72,3.03,2.424C338.471,381.747,338.099,381.98,337.964,382.453z
			 M331.905,374.572c3.35,2.105,7.762,3.146,9.694,6.668C338.835,378.553,334.093,377.84,331.905,374.572z M354.931,381.846
			c-2.106-1.126-2.441-4.021-3.636-6.06c1.11-0.031,2.051,3.106,3.028,1.212C355.691,377.449,354.561,380.397,354.931,381.846z
			 M359.172,374.181c-0.688-0.865-0.444-3.726-0.278-4.681c1.915-0.096,7.25,1.27,7.833,2.5
			C366.795,374.446,360.728,371.167,359.172,374.181z M373.354,421.052c3.228-7.535,11.288,0.989,13.33,5.454
			C382.041,428.897,375.24,425.214,373.354,421.052z M394.321,349.729c-3.971,3.099-19.593,14.47-20.603,18.785
			c-3.542-4.205-5.45-6.29-10.304-9.091c-2.482-0.059-5.489,0.683-7.188,1.409c0.736-1.545,1.37-3.126,2.34-4.438
			c14.66,0.105,13.468-15.103,10.494-17.228c-4.667-3.334-9.459-14.774-3.667-27.167c19,10,35-0.667,43,1.333
			C408.094,323.883,393.035,333.313,394.321,349.729z"/>
		<path d="M236.252,595.67h15.794c-6.202-17.851-10.147-37.957-15.884-56.271C236.8,557.95,236.407,577.103,236.252,595.67z"/>
		<path d="M324.633,364.879c-1.521,2.46-1.058,3.246-2.424,5.453C324.213,370.091,326.166,366.648,324.633,364.879z"/>
		<path d="M312.515,376.393c-1.598,1.197-4.001,7.487-1.213,9.09c-1.553-3.996,3.35-9.447,1.817-11.515
			c-1.381,1.771-1.144-0.771-0.604-1.819C309.074,373.054,311.343,376.04,312.515,376.393z"/>
		<path d="M308.878,385.482c-0.912-2.298,0.644-5.271,1.212-7.877c-2.195-0.799-2.007-3.234-0.606-4.85
			c-1.506-0.092-2.517,0.313-3.029,1.212C311.399,376.224,305.429,382.393,308.878,385.482z"/>
		<path d="M316.151,375.786c0.177-0.539,1.636-2.653,1.817-1.214c-1.198,2.035-2.203,4.266-2.425,7.273
			c1.976-0.224,2.931-3.831,1.213-4.24c1.037-0.781,2.379-1.256,2.424-3.033c-0.647-0.563-0.19-2.234-1.817-1.816
			c-1.304,2.823-1.094,0.91-3.031,0c0,0.605,0,1.212,0,1.816C315.52,374.391,315.532,375.392,316.151,375.786z"/>
		<path d="M145.87,589.694c2.986-3.483,10.18-5.973,11.513-9.09C154.19,583.878,146.645,586.019,145.87,589.694z"/>
		<path d="M274.394,529c14-35,34-77,45-97C310.798,441.054,277.394,491,274.394,529z"/>
	</g>
</g>
</svg>
