<?xml version="1.0" encoding="utf-8"?>
<!-- Generator: Adobe Illustrator 13.0.0, SVG Export Plug-In . SVG Version: 6.00 Build 14948)  -->
<!DOCTYPE svg PUBLIC "-//W3C//DTD SVG 1.1//EN" "http://www.w3.org/Graphics/SVG/1.1/DTD/svg11.dtd">
<svg version="1.1" id="Layer_1" xmlns="http://www.w3.org/2000/svg" xmlns:xlink="http://www.w3.org/1999/xlink" x="0px" y="0px"
	 width="870.66px" height="750.113px" viewBox="0 0 870.66 750.113" enable-background="new 0 0 870.66 750.113"
	 xml:space="preserve">
<g>
	<g>
		<path d="M735.356,669.112c-0.719,1.014-1.077,2.122-1.077,3.325c0,1.521,0.454,2.782,1.361,3.784
			c0.908,1.003,1.953,1.505,3.136,1.505c1.604,0,3.715-1.056,6.333-3.167v-11.052c-3.188,1.267-5.246,2.164-6.175,2.691
			C737.267,667.128,736.073,668.1,735.356,669.112z M546.27,669.112c-0.718,1.014-1.077,2.122-1.077,3.325
			c0,1.521,0.454,2.782,1.362,3.784c0.907,1.003,1.953,1.505,3.135,1.505c1.604,0,3.716-1.056,6.333-3.167v-11.052
			c-3.188,1.267-5.246,2.164-6.175,2.691C548.181,667.128,546.987,668.1,546.27,669.112z M870.439,589.899
			c-5.736-66.205-79.513-99.235-132.26-123.882c-24.445-11.422-54.493-22.46-73.166-42.577
			c-19.287-20.778-32.223-45.724-43.98-71.299c-14.444-31.421-7.356-60.62,9.54-89.246c11.174-18.933,23.05-25.826,45.507-24.881
			c17.669,0.743,34.901,3.985,51.459,10.084c24.229,8.923,37.882,34.489,49.998,55.608c13.868,24.171,12.191,54.758,17.182,81.523
			c1.113,5.974,7.287,33.517,14.737,18.8c6.813-13.457,7.146-32.679,9.997-47.426c2.468-12.759,6.762-24.095,6.832-37.277
			c0.072-13.746-3.859-27.81-6.225-41.295c-2.613-14.91-5.077-25.456-14.457-37.545c-9.428-12.15-18.595-20.621-31.224-29.312
			c-21.09-14.515-45.624-21.725-71.102-20.818c-32.475,1.156-59.057,3.284-86.841,21.83c-8.461,6.286-14.309,17.187-15.58,20.036
			c-1.996,3.116-10.066,17.321-13.641,29.192c-3.628,12.046-6.57,24.316-9.528,36.543c-2.339,9.672-7.158,23.612-4.455,33.407
			c5.71,20.694,12.134,40.424,20.391,60.199c9.349,22.391,21.547,40.391,34.584,60.749c6.296,9.833,13.235,19.053,19.829,28.671
			c5.218,7.613,17.545,29.428,12.609,37.928c-3.276,5.645-6.589,12.308-13.641,9.871c-6.282-2.171-12.371-6.705-17.995-10.221
			c-10.11-6.319-25.008-7.85-32.646-18.033c-11.535-15.379-25.299-28.596-35.651-44.917c-23.464-36.988-45.406-72.04-63.829-111.766
			c-2.139-4.614-16.472-34.198-19.665-26.001c-3.96,10.168,8.567,33.981,12.191,43.395c5.074,13.184,11.523,26.326,13.185,40.462
			c1.501,12.78,1.167,25.676,2.052,38.511c-14.115-15.151-29.836-30.062-42.808-46.117c-15.1-18.689-27.093-39.064-40.272-59.08
			c-2.644-4.015-6.088-10.16-10.821-11.872c-5.947-2.152-2.764,9.188-1.662,11.529c5.368,11.413,11.232,22.617,16.278,34.179
			c9.525,21.827,20.687,44.53,33.046,64.839c7.872,12.933,16.232,25.519,24.891,37.912c4.288,6.138-14,3.658-16.82,3.398
			c-6.392-0.592-12.711-7.901-18.9-10.521c-22.07-9.343-43.126-26.104-55.946-46.536c-2.517-4.012-10.977-5.529-7.551,0.843
			c2.384,4.434,4.874,8.985,7.558,13.242c6.228,9.875,14.486,18.422,20.505,28.435c10.535,17.527,23.587,34.382,36.298,50.425
			c14.023,17.697,24.398,38.486,36.897,57.394c6.588,9.968,13.953,19.402,20.556,29.361c10.07,15.189-11.399,4.871-18.142,1.791
			c-9.753-4.454-20.947-9.676-31.919-9.676c-10.447,0-19.82,5.096-30.521,4.294c-23.73-1.78-48.016-7.713-71.769-7.713
			c-6.69,0-12.074,5.408-4.741,9.833c5.732,3.459,11.561,6.461,17.644,9.248c9.958,4.564,24.101,8.379,32.755,14.819
			c5.633,4.191-8.209,2.279-8.982,2.119c-5.071-1.055-9.189-2.362-13.718-4.705c-6.168-3.19-28.421-16.867-35.355-13.632
			c-5.994,2.798-0.171,11.647,2.717,13.83c5.433,4.104,11.173,6.766,17.125,9.962c4.187,2.25,27.772,25.779,23.632,26.481
			c-21.199,3.594-45.115-7.865-66.416,0.651c-4.375,1.75-20.202,15.855-17.411,21.09c0.257,0.483,34.228,0.042,37.964,0.436
			c19.632,2.063,39.936,4.251,58.884,9.905c38.935,11.614,76.898,24.736,115.141,38.379c19.842,7.078,39.886,15.445,60.383,20.472
			c25.815,6.328,50.174,5.394,76.354,3.37c42.125-3.253,86.854-12.616,124.402-32.658c20.737-11.07,46.421-23.083,61.667-41.439
			C853.594,652.825,872.948,618.87,870.439,589.899z M536.2,639.028h-1.488c-1.837,0-3.135,0.55-3.895,1.646
			c-0.465,0.677-0.697,2.217-0.697,4.624v28.058c0,2.639,0.295,4.285,0.887,4.939c0.781,0.887,2.016,1.33,3.705,1.33h1.488v1.172
			h-18.24v-1.172h1.52c1.836,0,3.124-0.549,3.863-1.646c0.464-0.676,0.697-2.217,0.697-4.623v-28.691l-16.562,36.133h-1.045
			l-16.594-36.133v28.691c0,2.639,0.285,4.285,0.855,4.939c0.781,0.887,2.016,1.33,3.705,1.33h1.52v1.172h-14.947v-1.172h1.52
			c1.815,0,3.104-0.549,3.863-1.646c0.464-0.676,0.697-2.217,0.697-4.623v-28.058c0-1.9-0.211-3.272-0.633-4.117
			c-0.296-0.612-0.839-1.124-1.631-1.535c-0.792-0.412-2.064-0.618-3.816-0.618v-1.172h12.16l15.581,33.6l15.327-33.6h12.16V639.028
			z M566.221,676.618c-2.365,3.166-4.624,4.75-6.777,4.75c-1.035,0-1.858-0.359-2.47-1.077s-0.929-1.942-0.95-3.673
			c-2.977,2.301-4.845,3.631-5.605,3.989c-1.14,0.528-2.354,0.792-3.642,0.792c-2.006,0-3.658-0.686-4.956-2.059
			c-1.298-1.372-1.948-3.177-1.948-5.415c0-1.414,0.317-2.639,0.95-3.673c0.865-1.436,2.37-2.787,4.513-4.054
			c2.143-1.267,5.705-2.808,10.688-4.623v-1.141c0-2.892-0.459-4.877-1.377-5.953c-0.918-1.077-2.254-1.615-4.006-1.615
			c-1.33,0-2.386,0.359-3.167,1.077c-0.803,0.718-1.204,1.541-1.204,2.47l0.063,1.837c0,0.971-0.249,1.721-0.744,2.248
			c-0.497,0.528-1.146,0.792-1.948,0.792c-0.781,0-1.42-0.274-1.916-0.823s-0.744-1.299-0.744-2.249
			c0-1.815,0.929-3.483,2.787-5.003c1.857-1.521,4.465-2.28,7.822-2.28c2.575,0,4.687,0.433,6.333,1.298
			c1.245,0.655,2.164,1.679,2.755,3.072c0.38,0.908,0.57,2.766,0.57,5.573v9.849c0,2.766,0.053,4.46,0.159,5.083
			c0.105,0.623,0.279,1.04,0.522,1.251c0.242,0.211,0.522,0.316,0.839,0.316c0.337,0,0.633-0.074,0.886-0.222
			c0.443-0.274,1.299-1.045,2.565-2.312V676.618z M594.088,652.962l-19.444,25.714h10.577c2.216,0,3.72-0.185,4.512-0.554
			s1.43-1.019,1.916-1.947c0.338-0.676,0.622-2.101,0.855-4.275h1.076l-0.349,8.898h-25.587v-1.14l19.254-25.651h-9.5
			c-2.048,0-3.388,0.133-4.021,0.396s-1.151,0.766-1.552,1.504c-0.57,1.056-0.897,2.364-0.982,3.927h-1.267l0.19-8.044h24.321
			V652.962z M622.873,652.962l-19.443,25.714h10.577c2.217,0,3.721-0.185,4.513-0.554c0.791-0.369,1.43-1.019,1.916-1.947
			c0.337-0.676,0.622-2.101,0.854-4.275h1.077l-0.349,8.898h-25.587v-1.14l19.253-25.651h-9.5c-2.048,0-3.389,0.133-4.021,0.396
			c-0.634,0.264-1.151,0.766-1.552,1.504c-0.57,1.056-0.897,2.364-0.981,3.927h-1.267l0.189-8.044h24.32V652.962z M655.967,652.962
			c-0.781,0.085-1.384,0.254-1.806,0.507c-0.422,0.254-0.887,0.729-1.394,1.425c-0.189,0.296-0.549,1.108-1.076,2.438
			l-11.813,28.944c-1.14,2.808-2.634,4.929-4.48,6.365c-1.848,1.436-3.626,2.153-5.336,2.153c-1.246,0-2.27-0.359-3.072-1.077
			c-0.802-0.718-1.203-1.541-1.203-2.47c0-0.887,0.29-1.6,0.871-2.138c0.58-0.538,1.378-0.808,2.391-0.808
			c0.697,0,1.646,0.232,2.851,0.697c0.844,0.316,1.372,0.475,1.583,0.475c0.634,0,1.324-0.327,2.074-0.981
			c0.749-0.654,1.504-1.922,2.265-3.8l2.058-5.035l-10.418-21.883c-0.316-0.654-0.823-1.467-1.521-2.438
			c-0.527-0.738-0.961-1.234-1.298-1.488c-0.486-0.337-1.267-0.633-2.344-0.887v-1.172h13.522v1.172h-0.665
			c-0.95,0-1.663,0.206-2.138,0.618c-0.476,0.411-0.713,0.924-0.713,1.535c0,0.823,0.349,1.964,1.045,3.42l7.063,14.631
			l6.491-16.023c0.359-0.865,0.539-1.721,0.539-2.565c0-0.38-0.074-0.665-0.222-0.854c-0.17-0.232-0.434-0.417-0.792-0.555
			c-0.359-0.137-0.993-0.206-1.9-0.206v-1.172h9.438V652.962z M701.361,678.249c-2.523,2.354-5.77,3.53-9.738,3.53
			c-1.245,0-2.417-0.095-3.515-0.285c-0.654-0.105-2.011-0.49-4.069-1.155s-3.362-0.998-3.911-0.998
			c-0.527,0-0.945,0.158-1.251,0.476c-0.306,0.316-0.533,0.971-0.681,1.963h-1.172v-14.726h1.172c0.549,3.083,1.287,5.39,2.217,6.92
			c0.929,1.531,2.349,2.803,4.26,3.815c1.91,1.014,4.006,1.521,6.285,1.521c2.639,0,4.724-0.696,6.255-2.09
			c1.53-1.394,2.296-3.04,2.296-4.94c0-1.056-0.291-2.122-0.871-3.198c-0.581-1.077-1.483-2.079-2.708-3.009
			c-0.823-0.633-3.071-1.979-6.745-4.037c-3.673-2.059-6.285-3.7-7.837-4.925c-1.552-1.224-2.729-2.575-3.531-4.053
			c-0.803-1.478-1.203-3.104-1.203-4.877c0-3.082,1.182-5.737,3.547-7.965c2.364-2.227,5.372-3.341,9.024-3.341
			c2.28,0,4.697,0.56,7.252,1.679c1.183,0.527,2.017,0.791,2.502,0.791c0.549,0,0.998-0.163,1.346-0.49
			c0.349-0.327,0.628-0.986,0.84-1.979h1.171v14.853h-1.171c-0.381-2.851-1.062-5.12-2.043-6.809
			c-0.981-1.689-2.381-3.029-4.196-4.022c-1.815-0.991-3.694-1.488-5.637-1.488c-2.195,0-4.011,0.671-5.446,2.011
			c-1.437,1.342-2.153,2.866-2.153,4.576c0,1.31,0.453,2.502,1.361,3.579c1.309,1.583,4.423,3.694,9.342,6.333
			c4.011,2.153,6.75,3.806,8.218,4.956c1.467,1.15,2.597,2.507,3.389,4.069s1.188,3.198,1.188,4.908
			C705.146,673.092,703.884,675.895,701.361,678.249z M723.607,679.705c-1.352,1.045-2.744,1.567-4.18,1.567
			c-0.972,0-1.922-0.269-2.851-0.807c-0.929-0.539-1.615-1.31-2.058-2.313c-0.443-1.002-0.665-2.549-0.665-4.639v-19.508h-4.592
			v-1.045c1.16-0.464,2.348-1.251,3.563-2.359c1.214-1.108,2.296-2.422,3.245-3.942c0.486-0.802,1.161-2.269,2.027-4.401h0.981
			v9.531h6.777v2.217h-6.777v18.811c0,1.88,0.27,3.146,0.808,3.801s1.229,0.981,2.074,0.981c0.696,0,1.372-0.217,2.026-0.649
			s1.161-1.071,1.521-1.916h1.235C726.004,677.104,724.958,678.66,723.607,679.705z M755.307,676.618
			c-2.365,3.166-4.624,4.75-6.777,4.75c-1.034,0-1.857-0.359-2.47-1.077s-0.93-1.942-0.95-3.673
			c-2.977,2.301-4.845,3.631-5.604,3.989c-1.141,0.528-2.354,0.792-3.643,0.792c-2.006,0-3.657-0.686-4.956-2.059
			c-1.298-1.372-1.947-3.177-1.947-5.415c0-1.414,0.316-2.639,0.95-3.673c0.865-1.436,2.37-2.787,4.513-4.054
			s5.705-2.808,10.688-4.623v-1.141c0-2.892-0.459-4.877-1.377-5.953c-0.919-1.077-2.254-1.615-4.006-1.615
			c-1.33,0-2.387,0.359-3.167,1.077c-0.803,0.718-1.203,1.541-1.203,2.47l0.063,1.837c0,0.971-0.248,1.721-0.744,2.248
			c-0.496,0.528-1.146,0.792-1.947,0.792c-0.781,0-1.42-0.274-1.916-0.823s-0.744-1.299-0.744-2.249
			c0-1.815,0.929-3.483,2.787-5.003c1.857-1.521,4.465-2.28,7.821-2.28c2.576,0,4.688,0.433,6.334,1.298
			c1.245,0.655,2.164,1.679,2.755,3.072c0.38,0.908,0.57,2.766,0.57,5.573v9.849c0,2.766,0.052,4.46,0.158,5.083
			c0.105,0.623,0.279,1.04,0.522,1.251c0.242,0.211,0.522,0.316,0.839,0.316c0.338,0,0.634-0.074,0.887-0.222
			c0.443-0.274,1.299-1.045,2.565-2.312V676.618z M776.619,656.541c-0.549,0.569-1.203,0.854-1.964,0.854
			c-0.739,0-1.567-0.364-2.485-1.093c-0.918-0.728-1.6-1.092-2.043-1.092c-0.38,0-0.791,0.211-1.234,0.633
			c-0.95,0.866-1.932,2.291-2.945,4.275v13.902c0,1.604,0.2,2.818,0.602,3.642c0.274,0.569,0.76,1.045,1.457,1.425
			c0.696,0.38,1.699,0.57,3.008,0.57v1.14h-14.852v-1.14c1.478,0,2.575-0.232,3.293-0.697c0.527-0.337,0.897-0.876,1.108-1.615
			c0.105-0.358,0.158-1.382,0.158-3.071v-11.242c0-3.377-0.068-5.389-0.205-6.032c-0.138-0.644-0.392-1.113-0.761-1.409
			s-0.828-0.443-1.377-0.443c-0.655,0-1.394,0.158-2.217,0.475l-0.316-1.14l8.771-3.547h1.33v6.523
			c2.428-4.349,4.919-6.523,7.474-6.523c1.16,0,2.121,0.354,2.882,1.061c0.76,0.708,1.14,1.525,1.14,2.454
			C777.442,655.273,777.168,655.971,776.619,656.541z"/>
	</g>
</g>
</svg>
