<?xml version="1.0" encoding="utf-8"?>
<!-- Generator: Adobe Illustrator 13.0.0, SVG Export Plug-In . SVG Version: 6.00 Build 14948)  -->
<!DOCTYPE svg PUBLIC "-//W3C//DTD SVG 1.1//EN" "http://www.w3.org/Graphics/SVG/1.1/DTD/svg11.dtd">
<svg version="1.1" id="Layer_1" xmlns="http://www.w3.org/2000/svg" xmlns:xlink="http://www.w3.org/1999/xlink" x="0px" y="0px"
	 width="566.211px" height="430.971px" viewBox="0 0 566.211 430.971" enable-background="new 0 0 566.211 430.971"
	 xml:space="preserve">
<path d="M480.073,391.098c-3.995,0-7.218,3.222-7.218,7.217c0,3.996,3.223,7.218,7.218,7.218c3.995,0,7.218-3.223,7.218-7.218
	C487.291,394.32,484.068,391.098,480.073,391.098z M480.093,404.897c-3.686,0-6.504-2.934-6.504-6.582
	c0-3.724,2.779-6.581,6.504-6.581c3.706,0,6.466,2.876,6.466,6.562C486.558,401.944,483.779,404.897,480.093,404.897z"/>
<polygon points="19.628,417.056 19.53,417.056 11.25,388.585 0.292,388.585 0.292,429.986 7.581,429.986 7.581,400.936 
	7.68,400.936 16.356,429.986 22.355,429.986 31.032,400.646 31.131,400.646 31.131,429.986 38.42,429.986 38.42,388.585 
	27.462,388.585 "/>
<path d="M65.745,414.33c0,6.147-1.785,8.988-7.337,8.988c-6.297,0-7.288-4.464-7.288-8.988v-25.745h-7.785v25.745
	c0,11.25,5.554,16.642,15.073,16.642c9.47,0,15.122-5.45,15.122-16.642v-25.745h-7.784V414.33z"/>
<path d="M96.928,405.632c-9.342-2.667-11.116-3.073-11.116-6.262c0-3.479,3.027-4.697,5.636-4.697c3.915,0,7.098,1.276,7.359,6.263
	h7.933c0-9.567-7.15-13.337-14.926-13.337c-6.732,0-13.935,4.059-13.935,12.525c0,7.77,5.584,10.147,11.117,11.771
	c5.48,1.624,11.064,2.377,11.064,6.843c0,4.232-4.384,5.161-7.254,5.161c-4.384,0-8.246-2.146-8.246-7.654h-7.933
	c-0.105,10.206,7.62,14.728,15.866,14.728c10.125,0,15.5-5.682,15.5-13.278C107.992,408.299,99.642,406.386,96.928,405.632z"/>
<rect x="112.842" y="388.585" width="8.193" height="41.401"/>
<path d="M144.934,423.317c-7.359,0-10.125-6.958-10.125-13.858c0-7.249,2.766-14.207,10.125-14.207c4.071,0,7.619,3.131,8.142,7.248
	h7.933c-0.992-9.567-7.88-14.902-16.074-14.902c-11.534,0-18.318,9.567-18.318,21.861c0,11.944,6.785,21.512,18.318,21.512
	c9.133,0,15.552-6.61,16.387-16.932h-7.933C152.762,419.491,149.944,423.317,144.934,423.317z"/>
<polygon points="172.198,396.238 183.367,396.238 183.367,429.986 191.56,429.986 191.56,396.238 202.729,396.238 202.729,388.585 
	172.198,388.585 "/>
<polygon points="214.227,412.185 232.285,412.185 232.285,405.11 214.227,405.11 214.227,396.238 233.903,396.238 233.903,388.585 
	206.033,388.585 206.033,429.986 234.32,429.986 234.32,422.332 214.227,422.332 "/>
<polygon points="246.593,388.585 238.399,388.585 238.399,429.986 262.822,429.986 262.822,422.332 246.593,422.332 "/>
<polygon points="274.63,412.185 292.687,412.185 292.687,405.11 274.63,405.11 274.63,396.238 294.305,396.238 294.305,388.585 
	266.436,388.585 266.436,429.986 294.722,429.986 294.722,422.332 274.63,422.332 "/>
<polygon points="313.09,417.693 312.986,417.693 304.688,388.585 296.233,388.585 308.341,429.986 317.578,429.986 329.947,388.585 
	321.492,388.585 "/>
<rect x="334.574" y="388.585" width="8.193" height="41.401"/>
<path d="M365.502,405.632c-9.341-2.667-11.117-3.073-11.117-6.262c0-3.479,3.028-4.697,5.637-4.697c3.914,0,7.097,1.276,7.358,6.263
	h7.933c0-9.567-7.15-13.337-14.926-13.337c-6.732,0-13.935,4.059-13.935,12.525c0,7.77,5.584,10.147,11.117,11.771
	c5.479,1.624,11.063,2.377,11.063,6.843c0,4.232-4.384,5.161-7.254,5.161c-4.384,0-8.246-2.146-8.246-7.654H345.2
	c-0.104,10.206,7.62,14.728,15.866,14.728c10.125,0,15.5-5.682,15.5-13.278C376.566,408.299,368.216,406.386,365.502,405.632z"/>
<rect x="382.382" y="388.585" width="8.194" height="41.401"/>
<path d="M412.542,387.599c-11.534,0-18.319,9.567-18.319,21.861c0,11.944,6.785,21.512,18.319,21.512s18.319-9.567,18.319-21.512
	C430.861,397.166,424.076,387.599,412.542,387.599z M412.542,423.317c-7.359,0-10.125-6.958-10.125-13.858
	c0-7.249,2.766-14.207,10.125-14.207c7.358,0,10.125,6.958,10.125,14.207C422.667,416.359,419.9,423.317,412.542,423.317z"/>
<polygon points="457.817,416.359 457.713,416.359 442.16,388.585 434.018,388.585 434.018,429.986 441.691,429.986 441.691,402.269 
	441.795,402.269 457.296,429.986 465.49,429.986 465.49,388.585 457.817,388.585 "/>
<path d="M481.231,398.663c1.216-0.193,2.2-0.868,2.2-2.258c0-1.544-0.849-2.355-2.778-2.355h-3.204v8.531h0.733v-3.937h2.22
	l2.566,3.937h0.811L481.231,398.663z M479.996,398.007h-1.814v-3.32h2.354c1.023,0,2.162,0.387,2.162,1.699
	C482.698,397.872,481.289,398.007,479.996,398.007z"/>
<path d="M302.503,157.443c2.899,6.765,4.833,20.779,4.833,31.41c0,10.631,2.417,34.793,0.967,54.605
	c-1.45,11.114-5.799,30.927-4.35,39.625s4.35,28.51,5.316,39.142c0.966,10.631,10.631,20.779,27.061,15.946
	c16.43-4.832,20.295-14.497,18.362-27.061c-1.933-12.563-8.698-22.229-8.698-38.658s2.417-46.391,0.483-69.102
	c-1.933-22.712-3.382-60.888-3.382-67.169c6.282-4.349,19.329-8.698,25.128-12.564s12.081-7.732,18.846-11.598
	c6.765-3.866,19.813-11.114,14.98-26.094c-4.833-14.98-17.879-10.148-22.711-7.732c-4.833,2.416-15.464,14.98-22.229,19.329
	c-6.765,4.349-18.363,9.182-22.229,10.148c-4.833-5.315-16.913-13.53-28.994-3.866s-8.698,22.229-7.731,28.51
	c-7.732,3.383-21.263,9.665-27.062,13.531c-5.798,3.866-18.363,13.531-25.128,17.88c-6.765,4.349-12.564,8.215-25.128,10.631
	c-12.564,2.416-17.396,19.329-10.148,28.511s18.846,13.53,28.511,1.45c9.665-12.081,10.148-16.913,17.396-21.262
	s17.88-12.564,26.095-16.913S296.704,159.376,302.503,157.443z"/>
<g>
	<g>
		<path d="M539.026,49.158c-15.652,3.913-19.076,11.25-26.413,20.055c-2.645,3.173-5.672,6.284-8.805,9.468V18.035L466.708,0
			H291.962l-43.199,43.781l-12.064-12.064L168.805,0H0v372.965h174.322l33.071-19.895V241.982l22.197,21.882l48.508-10.212
			l15.383-16.172v135.485h173.333l36.995-21.838V145.678c1.118-1.247,2.257-2.417,3.424-3.584
			c4.892-4.892,7.337-10.761,10.272-16.142c2.935-5.38,9.782-12.717,15.163-14.185c5.381-1.468,28.37-10.272,32.772-29.348
			C569.841,63.343,554.677,45.245,539.026,49.158z M233.848,35.784l11.449,11.449L230.99,61.484l-51.491-51.089L233.848,35.784z
			 M202.501,350.304l-27.391,16.478V210.178l27.391,26.986V350.304z M293.48,230.383l-17.878,18.795l-37.532,7.901l55.41-54.376
			V230.383z M463.698,131.323c-3.978,5.942-7.386,11.36-9.293,15.173c-5.87,11.74-13.695,22.99-18.586,35.707
			c-4.892,12.717-8.316,16.141-11.74,22.5c-3.424,6.358-7.336,7.826-9.783,1.467c-2.445-6.358-6.848-10.76-6.358-22.989
			c0.489-12.229-0.489-18.098-1.957-24.457c-1.467-6.358-4.402-16.63-12.229-19.565c-7.826-2.936-30.326,1.957-31.793,12.229
			c-1.468,10.271,0.978,17.608,4.402,28.369c3.423,10.761,9.293,32.772,13.206,41.577c3.914,8.805,6.848,20.054,8.805,25.435
			c1.957,5.38,3.424,13.207,5.38,22.011s7.337,28.859,29.348,26.902c22.011-1.957,22.011-16.631,22.011-23.479
			c0-6.848,0.979-23.479,5.381-32.772c2.622-5.535,8.368-15.236,13.206-23.934v152.577H298.372V196.876l-4.159-1.745l-63.815,62.624
			l-56.018-55.162l-4.162,1.742v163.738H4.891V5.136h162.364l62.016,61.532l3.449-0.003l61.771-61.529h169.208V131.323z
			 M498.916,348.334l-30.326,17.901V206.317c1.068-2.153,1.922-4.045,2.445-5.527c2.935-8.315,6.849-12.229,10.272-16.142
			c3.424-3.913,7.827-11.25,12.229-22.011c1.782-4.357,3.565-7.742,5.38-10.564V348.334z M498.916,83.687
			c-3.988,4.148-7.921,8.524-11.25,13.407c-4.018,5.893-11.849,16.626-19.076,27.06V6.354l30.326,14.742V83.687z"/>
	</g>
</g>
</svg>
