<?xml version="1.0" encoding="utf-8"?>
<!-- Generator: Adobe Illustrator 13.0.0, SVG Export Plug-In . SVG Version: 6.00 Build 14948)  -->
<!DOCTYPE svg PUBLIC "-//W3C//DTD SVG 1.1//EN" "http://www.w3.org/Graphics/SVG/1.1/DTD/svg11.dtd">
<svg version="1.1" id="Layer_3" xmlns="http://www.w3.org/2000/svg" xmlns:xlink="http://www.w3.org/1999/xlink" x="0px" y="0px"
	 width="347.799px" height="571.604px" viewBox="0 0 347.799 571.604" enable-background="new 0 0 347.799 571.604"
	 xml:space="preserve">
<g>
	<g>
		<path d="M0,92.939v478.665h347.799V92.939H0z M333.9,557.939H14.233V107.272H333.9V557.939z"/>
	</g>
</g>
<g>
	<g>
		<path d="M261.569,196.002c0,0-1.999-33.333-12.666-46s-34-22-54.667-22.667s-98.667-0.667-98.667-0.667v414h74.667v-150
			c0,0,48.667,0.001,64-9.333s24-28,26-48S261.569,196.002,261.569,196.002z M169.962,324.814L169.9,191.689
			c4.75,0,17,3.75,17.25,12.25l0.063,108.625C186.962,321.064,174.712,324.814,169.962,324.814z"/>
	</g>
</g>
<g>
	<path d="M36.564,33.101c0,6.692-1.343,11.851-4.028,15.475c-2.686,3.626-7.294,5.437-13.823,5.437h-3.002v32.862H1.967V1.792
		h19.748c4.21,0,7.529,1.236,9.952,3.705c2,1.992,3.37,4.741,4.108,8.245c0.526,2.551,0.79,5.299,0.79,8.246V33.101z M22.978,32.623
		v-8.484c0-5.019-0.632-8.085-1.896-9.202c-0.738-0.556-1.634-0.836-2.686-0.836h-2.686v27.246h2.528
		C21.398,41.346,22.978,38.439,22.978,32.623z"/>
	<path d="M72.898,65.604c0,9.721-2.423,16.531-7.267,20.434c-2.634,2.151-6.058,3.227-10.269,3.227
		c-6.215,0-10.849-2.668-13.902-8.006c-2.002-3.585-3.001-8.643-3.001-15.176V23.78c0-9.638,2.37-16.449,7.109-20.434
		C48.199,1.117,51.517,0,55.521,0c7.899,0,13.113,3.465,15.64,10.396c1.158,3.346,1.738,8.047,1.738,14.101V65.604z M59.154,68.591
		V20.076c0-4.541-1.16-6.812-3.476-6.812c-2.424,0-3.634,1.992-3.634,5.975v49.71c0,4.224,1.21,6.334,3.634,6.334
		C57.994,75.284,59.154,73.053,59.154,68.591z"/>
	<path d="M112.866,86.875H98.649c-1.055-2.549-1.58-6.611-1.58-12.188V61.899c0-7.009-0.738-11.152-2.211-12.427
		c-0.948-0.956-2.002-1.434-3.16-1.434H89.96v38.836H76.373V1.792H95c10.438,0,15.655,6.572,15.655,19.717
		c0,10.994-3.476,17.446-10.427,19.358v0.358c6.951-0.079,10.427,5.138,10.427,15.655v17.326
		C110.655,79.545,111.391,83.768,112.866,86.875z M97.069,24.019c0-6.771-1.508-10.157-4.524-10.157H89.96v21.987h2.1
		C95.398,35.849,97.069,31.906,97.069,24.019z"/>
	<path d="M144.146,14.698h-9.321v72.176h-13.744V14.698h-9.637V1.792h32.701V14.698z"/>
	<path d="M160.417,86.875h-13.586V1.792h13.586V86.875z"/>
	<path d="M198.172,63.333c0,11.394-2.584,19-7.742,22.824c-2.844,2.07-6.266,3.106-10.268,3.106c-6.425,0-11.113-2.469-14.061-7.408
		c-1.793-2.947-2.685-7.209-2.685-12.787V53.655h13.584v15.414c0,3.824,1.21,5.736,3.635,5.736c2.314,0,3.476-2.473,3.476-7.416
		v-2.514c0-1.355-0.159-2.472-0.47-3.35c-0.417-1.355-1.875-3.667-4.376-6.938l-9.521-12.529
		c-4.221-5.814-6.329-12.148-6.329-18.999c0-9.797,2.473-16.528,7.424-20.193C173.473,0.956,177.001,0,181.426,0
		c11.162,0,16.746,6.094,16.746,18.283v13.862h-14.061V19.239c0-4.063-1.212-6.094-3.635-6.094c-2.316,0-3.476,1.873-3.476,5.616
		v2.749c0,1.594,0.421,3.028,1.265,4.302c1.051,1.912,4.895,7.17,11.53,15.773c3.372,4.462,5.583,7.887,6.638,10.277
		C197.59,54.81,198.172,58.633,198.172,63.333z"/>
	<path d="M236.403,86.875h-13.744V46.246h-6.636v40.629h-13.902V1.792h13.902v30.95h6.636V1.792h13.744V86.875z"/>
	<path d="M268.629,86.875H240.51V1.792h28.119v12.906h-14.376v18.761h14.376v12.667h-14.376v28.082h14.376V86.875z"/>
	<path d="M307.965,86.875h-13.587l-1.579-20.912h-7.425l-2.055,20.912h-11.532l9.953-85.082h18.642L307.965,86.875z M292.167,52.22
		l-2.212-37.402l-3.316,37.402H292.167z"/>
	<path d="M345.088,64.051c0,10.437-2.791,17.287-8.372,20.553c-2.634,1.514-5.268,2.271-7.899,2.271H310.65V1.792h18.167
		c4.843,0,8.424,1.216,10.743,3.645c2.315,2.431,3.844,5.438,4.581,9.022c0.632,2.868,0.947,6.135,0.947,9.798V64.051z
		 M331.503,64.667V23.403c0-6.201-1.687-9.302-5.055-9.302h-2.055v60.107h2.211C329.87,74.208,331.503,71.028,331.503,64.667z"/>
</g>
</svg>
